<svg xmlns="http://www.w3.org/2000/svg" version="1.1" xmlns:xlink="http://www.w3.org/1999/xlink" xmlns:svgjs="http://svgjs.com/svgjs" width="1440" height="560" preserveAspectRatio="none" viewBox="0 0 1440 560"><g mask="url(&quot;#SvgjsMask1001&quot;)" fill="none"><path d="M690.8 580.6C809.39 544.22 767.21 205.88 1014.98 204.98 1262.74 204.08 1494.8 387.99 1663.33 389.78" stroke="rgba(51,121,194,0.58)" stroke-width="2"></path><path d="M456.9 634.45C624.55 630.85 755.1 408.85 1086.64 403.52 1418.18 398.19 1552.32 220.61 1716.38 218.72" stroke="rgba(51,121,194,0.58)" stroke-width="2"></path><path d="M72.15 592.59C263.2 586.72 401.32 305.93 777.5 297.53 1153.68 289.13 1297.43 70.8 1482.85 67.93" stroke="rgba(51,121,194,0.58)" stroke-width="2"></path><path d="M589.64 639.1C752.04 610.22 830.15 208.04 1087.29 205.92 1344.43 203.8 1453.2 377.05 1584.94 379.52" stroke="rgba(51,121,194,0.58)" stroke-width="2"></path><path d="M778.92 594.03C867.58 567.99 837.24 317.68 1023.82 317.17 1210.41 316.66 1385.89 461.24 1513.63 462.77" stroke="rgba(51,121,194,0.58)" stroke-width="2"></path></g><defs><mask id="SvgjsMask1001"><rect width="1440" height="560" fill="#ffffff"></rect></mask></defs></svg>