<svg xmlns="http://www.w3.org/2000/svg" version="1.1" xmlns:xlink="http://www.w3.org/1999/xlink" xmlns:svgjs="http://svgjs.com/svgjs" width="1440" height="5000" preserveAspectRatio="none" viewBox="0 0 1440 5000"><g mask="url(&quot;#SvgjsMask1018&quot;)" fill="none"><rect width="1440" height="5000" x="0" y="0" fill="rgba(26, 26, 64, 1)"></rect><path d="M885.61 3289.04L951.45 3289.04L951.45 3347.16L885.61 3347.16z" stroke="rgba(255, 178, 166, 1)"></path><path d="M1008.1 4138.28L1071.97 4138.28L1071.97 4250.17L1008.1 4250.17z" stroke="rgba(255, 248, 154, 1)"></path><path d="M855.83 86.05L962.28 86.05L962.28 192.5L855.83 192.5z" fill="rgba(255, 178, 166, 1)"></path><path d="M946.02 528.02L995.66 528.02L995.66 633.66L946.02 633.66z" fill="rgba(154, 220, 255, 1)"></path><path d="M1020.77 4062.75L1038.45 4062.75L1038.45 4121.18L1020.77 4121.18z" fill="rgba(255, 248, 154, 1)"></path><path d="M1085.53 3734.87a95.9 95.9 0 1 0-46.86 185.99z" fill="rgba(255, 248, 154, 1)"></path><path d="M1270.67 982.29a15.79 15.79 0 1 0 31.24-4.66z" fill="rgba(255, 248, 154, 1)"></path><path d="M565.09 4140.28L607.46 4140.28L607.46 4182.65L565.09 4182.65z" fill="rgba(255, 178, 166, 1)"></path><path d="M233.35 4555.37 a88.83 88.83 0 1 0 177.66 0 a88.83 88.83 0 1 0 -177.66 0z" fill="rgba(154, 220, 255, 1)"></path><path d="M638.91 1915.17L738.4 1915.17L738.4 1978.66L638.91 1978.66z" stroke="rgba(154, 220, 255, 1)"></path><path d="M442.77 2857.63 a45.07 45.07 0 1 0 90.14 0 a45.07 45.07 0 1 0 -90.14 0z" fill="rgba(154, 220, 255, 1)"></path><path d="M222.01 2166.08L288.78 2166.08L288.78 2285.97L222.01 2285.97z" fill="rgba(154, 220, 255, 1)"></path><path d="M175.61 4983.41 a138.9 138.9 0 1 0 277.8 0 a138.9 138.9 0 1 0 -277.8 0z" fill="rgba(255, 178, 166, 1)"></path><path d="M1312.47 3223.94a81.62 81.62 0 1 0 21.9 161.76z" stroke="rgba(154, 220, 255, 1)"></path><path d="M734.16 4739.8 a34.23 34.23 0 1 0 68.46 0 a34.23 34.23 0 1 0 -68.46 0z" stroke="rgba(255, 248, 154, 1)"></path><path d="M988.81 1510.34 a21.12 21.12 0 1 0 42.24 0 a21.12 21.12 0 1 0 -42.24 0z" fill="rgba(255, 178, 166, 1)"></path><path d="M540.93 2467.32L668.6 2467.32L668.6 2485.1L540.93 2485.1z" stroke="rgba(255, 178, 166, 1)"></path><path d="M1219.59 4491.31L1294.18 4491.31L1294.18 4565.9L1219.59 4565.9z" stroke="rgba(255, 248, 154, 1)"></path><path d="M1407.63 4350.78L1498.66 4350.78L1498.66 4441.81L1407.63 4441.81z" stroke="rgba(154, 220, 255, 1)"></path><path d="M1286.43 3568.94L1337.62 3568.94L1337.62 3712.08L1286.43 3712.08z" fill="rgba(154, 220, 255, 1)"></path><path d="M346.7 2169.03L477.12 2169.03L477.12 2299.45L346.7 2299.45z" stroke="rgba(255, 178, 166, 1)"></path><path d="M305.59 4732.9L349.57 4732.9L349.57 4776.88L305.59 4776.88z" stroke="rgba(255, 178, 166, 1)"></path><path d="M793.23 4532.15a114.09 114.09 0 1 0-72.58 216.33z" fill="rgba(255, 178, 166, 1)"></path><path d="M1185.62 4594.68L1200.14 4594.68L1200.14 4657.77L1185.62 4657.77z" fill="rgba(255, 248, 154, 1)"></path><path d="M1015.8 573.3L1033.07 573.3L1033.07 700.36L1015.8 700.36z" stroke="rgba(154, 220, 255, 1)"></path><path d="M1323.27 3539.29 a115.2 115.2 0 1 0 230.4 0 a115.2 115.2 0 1 0 -230.4 0z" stroke="rgba(154, 220, 255, 1)"></path><path d="M581.73 2003.54L623.91 2003.54L623.91 2045.72L581.73 2045.72z" fill="rgba(255, 248, 154, 1)"></path><path d="M419.08 3550.41L462.41 3550.41L462.41 3552.7L419.08 3552.7z" fill="rgba(255, 178, 166, 1)"></path><path d="M44.37 2044.93L64.12 2044.93L64.12 2151.14L44.37 2151.14z" stroke="rgba(255, 248, 154, 1)"></path><path d="M1432.8 3762.89L1453.1 3762.89L1453.1 3783.19L1432.8 3783.19z" fill="rgba(255, 178, 166, 1)"></path><path d="M1102.74 1866.97L1168.8 1866.97L1168.8 1897.15L1102.74 1897.15z" stroke="rgba(154, 220, 255, 1)"></path><path d="M66.74 1686.47L112.62 1686.47L112.62 1732.35L66.74 1732.35z" fill="rgba(154, 220, 255, 1)"></path><path d="M364.42 2489.56a80.91 80.91 0 1 0 153.01 52.66z" fill="rgba(255, 178, 166, 1)"></path><path d="M697.35 3025.09a136.46 136.46 0 1 0-256.2 94.06z" stroke="rgba(255, 248, 154, 1)"></path><path d="M659.79 2223.56L803.11 2223.56L803.11 2302.22L659.79 2302.22z" stroke="rgba(154, 220, 255, 1)"></path><path d="M840.81 1048.85L910.42 1048.85L910.42 1134.24L840.81 1134.24z" fill="rgba(255, 178, 166, 1)"></path><path d="M475.82 1508.98L609.7 1508.98L609.7 1642.86L475.82 1642.86z" fill="rgba(255, 248, 154, 1)"></path><path d="M865.63 4793.79L987.22 4793.79L987.22 4915.38L865.63 4915.38z" stroke="rgba(154, 220, 255, 1)"></path><path d="M181.7 3237.36L240.93 3237.36L240.93 3326.53L181.7 3326.53z" stroke="rgba(255, 178, 166, 1)"></path><path d="M258.87 848.94L370.6 848.94L370.6 904.89L258.87 904.89z" stroke="rgba(255, 248, 154, 1)"></path><path d="M415.95 284.74L473.08 284.74L473.08 341.87L415.95 341.87z" fill="rgba(154, 220, 255, 1)"></path><path d="M672.03 2211.62 a79.45 79.45 0 1 0 158.9 0 a79.45 79.45 0 1 0 -158.9 0z" fill="rgba(255, 248, 154, 1)"></path><path d="M950.61 4218.75L978.68 4218.75L978.68 4246.82L950.61 4246.82z" stroke="rgba(255, 248, 154, 1)"></path><path d="M918.04 4001.06a98.38 98.38 0 1 0 84.18-177.85z" fill="rgba(255, 178, 166, 1)"></path></g><defs><mask id="SvgjsMask1018"><rect width="1440" height="5000" fill="#ffffff"></rect></mask></defs></svg>